<?xml version="1.0" encoding="utf-8"?>
<!-- Generator: Adobe Illustrator 21.0.0, SVG Export Plug-In . SVG Version: 6.00 Build 0)  -->
<svg version="1.1" id="Layer_2" xmlns="http://www.w3.org/2000/svg" xmlns:xlink="http://www.w3.org/1999/xlink" x="0px" y="0px"
	 width="34px" height="34px" viewBox="0 0 34 34" style="enable-background:new 0 0 34 34;" xml:space="preserve">
<style type="text/css">
	.st0{fill:none;}
	.st1{fill:#28292D;}
	.st2{fill:#EE6352;}
</style>
<g>
	<path class="st0" d="M1,17c0,8.8,7.2,16,16,16s16-7.2,16-16l0,0H17V1C8.1,1,1,8.2,1,17z"/>
	<path class="st1" d="M32.9,17c0,8.8-7.2,16-16,16S1,25.8,1,17S8.1,1,16.9,1V0C7.6,0,0,7.6,0,17s7.6,17,17,17s17-7.6,17-17l0,0H32.9
		L32.9,17z"/>
	<g>
		<path class="st2" d="M17,0C17,0,16.9,0,17,0v1l0,0c8.8,0,16,7.1,16,15.9h1C33.9,7.6,26.3,0,17,0z"/>
	</g>
</g>
</svg>
